<svg width="100" height="31" viewBox="0 0 100 31" fill="none" xmlns="http://www.w3.org/2000/svg">
<circle cx="98" cy="21" r="2" fill="#222222"/>
<path d="M16.8438 23.2344C20.1719 23.2344 22.3281 21.5938 22.3281 19.0625C22.3281 16.9531 20.9688 15.8281 17.2188 14.7969C14.6875 14.1406 13.8438 13.5781 13.8438 12.5938C13.8438 11.4688 15.0156 10.7656 16.7969 10.7656C18.2969 10.7656 19.6094 11.2812 20.6406 12.2656L22.0469 10.4375C20.5938 9.3125 18.7656 8.70312 16.8906 8.70312C13.7031 8.70312 11.5469 10.3438 11.5469 12.7812C11.5469 14.8906 12.9062 16.0156 16.5625 16.9531C19.2344 17.6094 20.0781 18.1719 20.0781 19.25C20.0781 20.4688 18.9062 21.1719 16.8906 21.1719C15.0156 21.1719 13.4688 20.5625 12.2969 19.3906L10.9375 21.0312C12.4844 22.4844 14.4531 23.2344 16.8438 23.2344Z" fill="#222222"/>
<path d="M32.9688 8.70312C30.9062 8.70312 29.125 9.64062 28 11.2812L27.8125 8.9375H25.8438V27.6875H28.1875V20.9844C29.2656 22.4375 30.9531 23.2344 32.9688 23.2344C36.5781 23.2344 39.2031 20.2812 39.2031 15.9688C39.2031 11.5625 36.7188 8.70312 32.9688 8.70312ZM32.4062 21.1719C29.7344 21.1719 28 19.1094 28 15.9688C28 12.8281 29.7344 10.7656 32.4062 10.7656C35.0781 10.7656 36.8125 12.8281 36.8125 15.9688C36.8125 19.1094 35.0781 21.1719 32.4062 21.1719Z" fill="#222222"/>
<path d="M50.0312 8.70312C47.875 8.70312 46 9.6875 44.9688 11.2812L44.7812 8.9375H42.8125V23H45.1562V15.0312C45.1562 12.6875 47.0312 11.0469 49.375 11.0469C49.9844 11.0469 50.5 11.0469 51.0156 11.0938V8.79688C50.6875 8.75 50.3594 8.70312 50.0312 8.70312Z" fill="#222222"/>
<path d="M64.3281 20.9375C63.6719 20.9375 63.3906 20.6562 63.3906 20V13.2969C63.3906 10.4375 61.375 8.70312 58.1406 8.70312C55.75 8.70312 53.7344 9.59375 52.1875 11.1406L53.6406 12.6406C54.8125 11.4219 56.4062 10.7188 58.0469 10.7188C59.9219 10.7188 61.1875 11.5156 61.1875 12.7812C61.1875 13.9531 60.2969 14.0938 57.9062 14.4688C55.1406 14.8906 51.8594 15.6875 51.8594 19.0625C51.8594 21.5469 53.7344 23.2344 56.4531 23.2344C58.5625 23.2344 60.4375 22.25 61.4688 20.7969C61.6094 22.4844 62.3125 23.0938 64.0469 23.0938C64.375 23.0938 64.75 23.0469 64.8438 23V20.9375H64.3281ZM56.7344 21.2656C55.1406 21.2656 54.2031 20.4688 54.2031 19.0156C54.2031 16.9531 56.2656 16.625 58.2344 16.2969C59.7812 16.0625 60.625 15.9219 61.1406 15.5469V17.7031C61.1406 19.625 59.0781 21.2656 56.7344 21.2656Z" fill="#222222"/>
<path d="M77.1719 8.9375L72.7656 20.5156L68.3594 8.9375H65.7812L71.4062 23H74.0312L79.6562 8.9375H77.1719Z" fill="#222222"/>
<path d="M92.8281 20.9375C92.1719 20.9375 91.8906 20.6562 91.8906 20V13.2969C91.8906 10.4375 89.875 8.70312 86.6406 8.70312C84.25 8.70312 82.2344 9.59375 80.6875 11.1406L82.1406 12.6406C83.3125 11.4219 84.9062 10.7188 86.5469 10.7188C88.4219 10.7188 89.6875 11.5156 89.6875 12.7812C89.6875 13.9531 88.7969 14.0938 86.4062 14.4688C83.6406 14.8906 80.3594 15.6875 80.3594 19.0625C80.3594 21.5469 82.2344 23.2344 84.9531 23.2344C87.0625 23.2344 88.9375 22.25 89.9688 20.7969C90.1094 22.4844 90.8125 23.0938 92.5469 23.0938C92.875 23.0938 93.25 23.0469 93.3438 23V20.9375H92.8281ZM85.2344 21.2656C83.6406 21.2656 82.7031 20.4688 82.7031 19.0156C82.7031 16.9531 84.7656 16.625 86.7344 16.2969C88.2812 16.0625 89.125 15.9219 89.6406 15.5469V17.7031C89.6406 19.625 87.5781 21.2656 85.2344 21.2656Z" fill="#222222"/>
<rect width="3" height="31" rx="1.5" fill="#222222"/>
</svg>
